:version 1.10
:name ASF
:units
  mass 1
  length 1
  angle deg
:documentation
  ASF file generated by Kaydara
:root
  axis xyz
  order  tx ty tz rx ry rz
  position 0 0 0
  orientation 0 0 0
:bonedata
  begin
    id 1
    name lfemurDummy
    direction 0.61522 -0.761478 0.204097
    length 5.68318
    axis 0 -0 0 xyz
  end
  begin
    id 2
    name lfemur
    direction 0.34202 -0.939693 -5.84747e-008
    length 16.9147
    axis 0 -0 20 xyz
    dof rx ry rz
    limits( -inf , inf )
( -inf , inf )
( -inf , inf )

  end
  begin
    id 3
    name ltibia
    direction 0.34202 -0.939693 1.20839e-009
    length 18.0532
    axis 0 -0 20 xyz
    dof rz ry rx
    limits( -inf , inf )
( -inf , inf )
( -inf , inf )

  end
  begin
    id 4
    name lfoot
    direction 0.0841971 -0.23133 0.969225
    length 5.23822
    axis -90 7.62852e-016 20 xyz
    dof ry rx rz
    limits( -inf , inf )
( -inf , inf )
( -inf , inf )

  end
  begin
    id 5
    name ltoes
    direction 0 0 0
    length 0
    axis 0 0 0 xyz
    dof rz ry rx
    limits( -inf , inf )
( -inf , inf )
( -inf , inf )

  end
  begin
    id 6
    name rfemurDummy
    direction -0.625247 -0.75382 0.202044
    length 5.74091
    axis 0 -0 0 xyz
  end
  begin
    id 7
    name rfemur
    direction -0.34202 -0.939693 -1.47013e-008
    length 16.4922
    axis 0 -0 -20 xyz
    dof rx ry rz
    limits( -inf , inf )
( -inf , inf )
( -inf , inf )

  end
  begin
    id 8
    name rtibia
    direction -0.34202 -0.939693 -7.74345e-010
    length 18.2421
    axis 0 -0 -20 xyz
    dof rz ry rx
    limits( -inf , inf )
( -inf , inf )
( -inf , inf )

  end
  begin
    id 9
    name rfoot
    direction -0.124331 -0.341598 0.931586
    length 5.45787
    axis -90 -7.62852e-016 -20 xyz
    dof ry rx rz
    limits( -inf , inf )
( -inf , inf )
( -inf , inf )

  end
  begin
    id 10
    name rtoes
    direction 0 0 0
    length 0
    axis 0 0 0 xyz
    dof rz ry rx
    limits( -inf , inf )
( -inf , inf )
( -inf , inf )

  end
  begin
    id 11
    name lowerbackDummy
    direction 0 0 0
    length 0
    axis 0 -0 0 xyz
  end
  begin
    id 12
    name lowerback
    direction -0.0218484 0.994884 -0.0986304
    length 4.45607
    axis 0 -0 0 xyz
    dof rx ry rz
    limits( -inf , inf )
( -inf , inf )
( -inf , inf )

  end
  begin
    id 13
    name upperback
    direction -0.00973057 0.999717 -0.0217111
    length 4.47449
    axis 0 -0 0 xyz
    dof rx ry rz
    limits( -inf , inf )
( -inf , inf )
( -inf , inf )

  end
  begin
    id 14
    name thorax
    direction -0.000928171 0.999699 0.0245198
    length 4.50973
    axis 0 -0 0 xyz
    dof rx ry rz
    limits( -inf , inf )
( -inf , inf )
( -inf , inf )

  end
  begin
    id 15
    name rclavicle
    direction -0.9009 0.425937 -0.0834055
    length 7.28587
    axis 0 -0 0 xyz
    dof rx ry rz
    limits( -inf , inf )
( -inf , inf )
( -inf , inf )

  end
  begin
    id 16
    name rhumerus
    direction -1 -2.23604e-007 -1.42637e-007
    length 13.5704
    axis 180 30 90 xyz
    dof rx ry rz
    limits( -inf , inf )
( -inf , inf )
( -inf , inf )

  end
  begin
    id 17
    name rradius
    direction -1 5.68281e-008 -4.4952e-007
    length 8.06782
    axis 180 30 90 xyz
    dof rz ry rx
    limits( -inf , inf )
( -inf , inf )
( -inf , inf )

  end
  begin
    id 18
    name rwrist
    direction -1 1.51393e-007 1.38143e-007
    length 4.03391
    axis -90 -90 0 xyz
    dof rz rx ry
    limits( -inf , inf )
( -inf , inf )
( -inf , inf )

  end
  begin
    id 19
    name rthumb
    direction 0 0 0
    length 0
    axis 0 0 0 xyz
    dof ry rx rz
    limits( -inf , inf )
( -inf , inf )
( -inf , inf )

  end
  begin
    id 20
    name rhand
    direction -1 -3.34077e-007 -5.59631e-007
    length 1.29744
    axis -90 -90 0 xyz
    dof ry rx rz
    limits( -inf , inf )
( -inf , inf )
( -inf , inf )

  end
  begin
    id 21
    name rfingers
    direction 0 0 0
    length 0
    axis 0 0 0 xyz
    dof rz ry rx
    limits( -inf , inf )
( -inf , inf )
( -inf , inf )

  end
  begin
    id 22
    name lclavicle
    direction 0.940017 0.332249 -0.0773232
    length 8.29589
    axis 0 -0 0 xyz
    dof rx ry rz
    limits( -inf , inf )
( -inf , inf )
( -inf , inf )

  end
  begin
    id 23
    name lhumerus
    direction 1 7.41158e-008 -1.44768e-008
    length 12.0042
    axis 180 -30 -90 xyz
    dof rx ry rz
    limits( -inf , inf )
( -inf , inf )
( -inf , inf )

  end
  begin
    id 24
    name lradius
    direction 1 -1.32972e-007 3.10821e-007
    length 8.1902
    axis 180 -30 -90 xyz
    dof rz ry rx
    limits( -inf , inf )
( -inf , inf )
( -inf , inf )

  end
  begin
    id 25
    name lwrist
    direction 1 3.08957e-007 4.01394e-007
    length 4.09509
    axis -90 90 0 xyz
    dof rz rx ry
    limits( -inf , inf )
( -inf , inf )
( -inf , inf )

  end
  begin
    id 26
    name lthumb
    direction 0 0 0
    length 0
    axis 0 0 0 xyz
    dof ry rx rz
    limits( -inf , inf )
( -inf , inf )
( -inf , inf )

  end
  begin
    id 27
    name lhand
    direction 1 -1.64125e-007 -6.99514e-007
    length 1.37229
    axis -90 90 0 xyz
    dof ry rx rz
    limits( -inf , inf )
( -inf , inf )
( -inf , inf )

  end
  begin
    id 28
    name lfingers
    direction 0 0 0
    length 0
    axis 0 0 0 xyz
    dof rz ry rx
    limits( -inf , inf )
( -inf , inf )
( -inf , inf )

  end
  begin
    id 29
    name lowerneck
    direction -0.030798 0.998024 0.0547665
    length 3.93918
    axis 0 -0 0 xyz
    dof rx ry rz
    limits( -inf , inf )
( -inf , inf )
( -inf , inf )

  end
  begin
    id 30
    name upperneck
    direction 0.0531588 0.996611 -0.0627736
    length 3.95491
    axis 0 -0 0 xyz
    dof rx ry rz
    limits( -inf , inf )
( -inf , inf )
( -inf , inf )

  end
  begin
    id 31
    name head
    direction 0 0 0
    length 0
    axis 0 0 0 xyz
    dof rx ry rz
    limits( -inf , inf )
( -inf , inf )
( -inf , inf )

  end
:hierarchy
  begin
    root lfemurDummy rfemurDummy lowerbackDummy
    lfemurDummy lfemur
    lfemur ltibia
    ltibia lfoot
    lfoot ltoes
    rfemurDummy rfemur
    rfemur rtibia
    rtibia rfoot
    rfoot rtoes
    lowerbackDummy lowerback
    lowerback upperback
    upperback thorax
    thorax rclavicle lclavicle lowerneck
    rclavicle rhumerus
    rhumerus rradius
    rradius rwrist
    rwrist rthumb rhand
    rhand rfingers
    lclavicle lhumerus
    lhumerus lradius
    lradius lwrist
    lwrist lthumb lhand
    lhand lfingers
    lowerneck upperneck
    upperneck head
  end

:SAMPLES-PER-SECOND 30
:FULLY-SPECIFIED
:DEGREES
75
root  14.66142249 35.58222253 3.615866684 -9.10899353 -55.35800171 2.054000854
lowerback  13.85639954 4.18900013 -1.267770052
upperback  6.650760174 5.230730057 2.029979944
thorax  -1.045160055 2.480989933 2.061779976
lowerneck  -2.651249886 5.601180077 -1.599040031
upperneck  17.71800041 5.854000092 10.60459995
head  5.358799934 3.377929926 3.886529922
lclavicle  0 -9.442270133e-015 7.951389973e-016
lhumerus  31.36070061 -7.821430206 79.50260162
lradius  2.160012181e-031 -2.793419306e-031 127.7129974
lwrist  -7.062250077e-031 1.765562519e-031 22.53079987
lhand  -1.496451383e-031 -27.76390076 20.11240005
lfingers  90 7.125020027 -90
lthumb  89.89689403 5.08795885 91.16245106
rclavicle  0 -9.442270133e-015 7.951389973e-016
rhumerus  34.25519943 10.14799976 -78.80690002
rradius  -9.273688718e-032 3.407173464e-031 105.2259979
rwrist  0 1.059337512e-030 -60.0945015
rhand  -7.920061211e-032 -33.2840004 9.303460121
rfingers  -90 -7.125020027 -90
rthumb  -92.93752616 -24.25625642 -97.11982154
rfemur  -11.99590015 7.201049805 -3.326440096
rtibia  -0 0 64.51139832
rfoot  -0 -25.59140015 -7.904409885
rtoes  5.373923086 19.29304026 -105.8922705
lfemur  -22.38100052 -2.757570028 -0.5377110243
ltibia  -0 0 63.73329926
lfoot  4.77525426e-032 -22.43260002 -5.597929955
ltoes  -4.250644065 -19.5611806 -102.515957
76
root  14.47097748 35.88022247 3.492911031 -8.507003784 -54.26100159 2.302993774
lowerback  13.2027998 4.440229893 -1.913110018
upperback  6.081019878 5.518780231 1.542099953
thorax  -1.318779945 2.639640093 1.890149951
lowerneck  -3.649369955 5.278649807 -2.097189903
upperneck  17.79949951 5.392059803 11.08870029
head  5.551680088 3.186539888 4.140359879
lclavicle  0 -9.442270133e-015 7.951389973e-016
lhumerus  32.20479965 -8.032369614 79.01409912
lradius  2.15181221e-031 -2.799740747e-031 127.5449982
lwrist  -7.062250077e-031 8.827812596e-032 22.91250038
lhand  -1.496451383e-031 -27.76390076 20.11240005
lfingers  90 7.125020027 -90
lthumb  89.89689403 5.08795885 91.16245106
rclavicle  0 -9.442270133e-015 7.951389973e-016
rhumerus  35.20140076 9.460260391 -78.4733963
rradius  -9.602694416e-032 3.398047474e-031 105.7799988
rwrist  7.062250077e-031 3.531125038e-031 -60.19469833
rhand  -7.920061211e-032 -33.2840004 9.303460121
rfingers  -90 -7.125020027 -90
rthumb  -92.93752616 -24.25625642 -97.11982154
rfemur  -11.19880009 6.956540108 -2.387130022
rtibia  -0 0 63.54399872
rfoot  -0 -26.78140068 -10.27050018
rtoes  5.373923086 19.29304026 -105.8922705
lfemur  -23.25550079 -2.351919889 -0.3044140041
ltibia  -0 0 62.70249939
lfoot  -0 -19.7534008 -7.515250206
ltoes  -4.250644065 -19.5611806 -102.515957
77
root  14.28793359 36.15622333 3.365355589 -7.87600708 -52.92900085 2.516998291
lowerback  12.38619995 4.466430187 -2.521019936
upperback  5.777229786 5.513450146 1.09236002
thorax  -1.209480047 2.6433599 1.808089972
lowerneck  -4.908679962 5.05012989 -2.824579954
upperneck  17.70089912 5.131239891 11.45580006
head  5.721350193 3.077290058 4.406209946
lclavicle  0 -9.442270133e-015 7.951389973e-016
lhumerus  33.27199936 -7.878139973 78.40110016
lradius  2.151519171e-031 -2.799965945e-031 127.5390015
lwrist  -7.062250077e-031 -1.765562519e-031 23.54330063
lhand  -1.496451383e-031 -27.76390076 20.11240005
lfingers  90 7.125020027 -90
lthumb  89.89689403 5.08795885 91.16245106
rclavicle  0 -9.442270133e-015 7.951389973e-016
rhumerus  36.67919922 9.164059639 -77.99859619
rradius  -9.885256279e-032 3.389935268e-031 106.2570038
rwrist  3.531125038e-031 3.531125038e-031 -60.39609909
rhand  -7.920061211e-032 -33.2840004 9.303460121
rfingers  -90 -7.125020027 -90
rthumb  -92.93752616 -24.25625642 -97.11982154
rfemur  -10.4368 6.597959995 -1.459519982
rtibia  -0 0 62.76589966
rfoot  -0 -27.85569954 -12.58160019
rtoes  5.373923086 19.29304026 -105.8922705
lfemur  -24.39049911 -2.053950071 -0.1184469983
ltibia  -0 0 61.85850143
lfoot  -0 -16.8593998 -9.353159904
ltoes  -4.250644065 -19.5611806 -102.515957
78
root  14.13586684 36.39511048 3.248311215 -6.927993774 -51.4730072 2.248001099
lowerback  11.47729969 4.367219925 -2.567850113
upperback  5.705140114 5.409339905 0.7475370169
thorax  -0.761146009 2.596519947 1.556759953
lowerneck  -6.153369904 4.843440056 -3.649329901
upperneck  17.34379959 4.98608017 11.62930012
head  5.806250095 3.002500057 4.622200012
lclavicle  0 -9.442270133e-015 7.951389973e-016
lhumerus  34.50120163 -7.571760178 77.87200165
lradius  2.15693955e-031 -2.79579252e-031 127.6500015
lwrist  -1.412450015e-030 8.827812596e-032 23.72590065
lhand  -1.496451383e-031 -27.76390076 20.11240005
lfingers  90 7.125020027 -90
lthumb  89.89689403 5.08795885 91.16245106
rclavicle  0 -9.442270133e-015 7.951389973e-016
rhumerus  38.4272995 8.967550278 -77.29170227
rradius  -1.011104496e-031 3.383269385e-031 106.6389999
rwrist  3.531125038e-031 7.062250077e-031 -60.46210098
rhand  -7.920061211e-032 -33.2840004 9.303460121
rfingers  -90 -7.125020027 -90
rthumb  -92.93752616 -24.25625642 -97.11982154
rfemur  -9.70596981 6.192379951 -0.3208929896
rtibia  -0 0 62.18199921
rfoot  -0 -28.88999939 -14.31680012
rtoes  5.373923086 19.29304026 -105.8922705
lfemur  -25.68930054 -1.793910027 0.3022789955
ltibia  -0 0 61.24219894
lfoot  -0 -14.20880032 -10.58860016
ltoes  -4.250644065 -19.5611806 -102.515957
